<?xml version="1.0" standalone="no"?>
<!DOCTYPE svg PUBLIC "-//W3C//DTD SVG 20010904//EN"
 "http://www.w3.org/TR/2001/REC-SVG-20010904/DTD/svg10.dtd">
<svg version="1.0" xmlns="http://www.w3.org/2000/svg"
 width="500.000000pt" height="500.000000pt" viewBox="0 0 500.000000 500.000000"
 preserveAspectRatio="xMidYMid meet">
<metadata>
Created by potrace 1.14, written by Peter Selinger 2001-2017
</metadata>
<g transform="translate(0.000000,500.000000) scale(0.100000,-0.100000)"
fill="#000000" stroke="none">
<path d="M2435 4440 c-38 -10 -88 -25 -111 -33 -32 -12 -52 -13 -95 -5 -92 17
-273 5 -357 -25 -232 -81 -476 -336 -529 -552 -9 -39 -27 -83 -39 -100 -53
-73 -141 -283 -170 -410 -17 -71 -19 -117 -16 -395 4 -547 4 -545 28 -577 16
-21 22 -48 26 -116 3 -48 3 -89 -1 -91 -4 -3 -19 19 -35 49 -15 29 -47 71 -71
94 l-43 40 -6 -43 c-9 -56 -3 -68 44 -88 50 -21 73 -68 90 -182 7 -44 28 -131
47 -194 39 -131 40 -156 2 -160 -19 -2 -33 5 -53 28 -33 39 -35 26 -2 -15 22
-27 30 -30 82 -30 l59 0 40 -120 c100 -293 257 -517 495 -704 316 -249 561
-325 800 -247 271 88 592 338 757 589 60 92 146 273 179 377 43 139 78 178
149 164 38 -7 70 7 86 38 l12 21 -28 -21 c-32 -25 -54 -28 -80 -8 -20 15 -22
4 31 208 8 32 21 100 29 153 18 115 33 147 88 182 53 35 54 37 49 73 -3 20
-10 30 -22 30 -25 0 -91 -76 -119 -137 -13 -29 -28 -50 -33 -47 -14 9 -9 188
6 225 12 28 14 89 10 334 -8 479 -23 592 -108 785 -33 75 -46 118 -50 172 -4
40 -9 85 -12 100 -5 25 -1 30 50 52 82 37 79 55 -31 168 -168 171 -284 228
-585 286 -178 34 -188 37 -188 59 0 33 -33 49 -147 72 -122 25 -138 25 -228 1z
m21 -921 c141 -40 277 -99 384 -165 70 -43 87 -50 103 -40 15 9 18 19 13 51
-3 26 0 47 10 59 8 11 14 32 14 46 0 15 3 29 6 33 7 7 143 -83 197 -130 60
-53 89 -42 111 42 l11 47 25 -24 c126 -122 172 -193 199 -306 38 -160 43 -230
25 -382 -17 -153 -15 -341 6 -584 10 -115 10 -170 2 -240 -12 -97 -61 -259
-110 -368 -42 -93 -166 -320 -221 -403 -56 -86 -300 -337 -401 -414 -154 -116
-322 -181 -429 -165 -87 13 -219 70 -322 141 -76 51 -358 313 -418 388 -108
134 -271 433 -319 585 -49 154 -56 233 -43 448 9 137 9 242 1 394 -5 114 -12
213 -15 220 -15 43 -23 208 -14 280 32 255 140 419 319 483 82 30 123 33 441
34 l316 1 109 -31z"/>
<path d="M2890 2764 c-107 -18 -179 -40 -201 -60 -27 -24 -21 -62 13 -87 l27
-20 118 29 c101 25 136 28 248 27 72 0 163 -7 203 -16 70 -14 75 -14 93 4 25
25 15 45 -32 70 -102 51 -328 77 -469 53z"/>
<path d="M1625 2726 c-175 -35 -274 -101 -219 -147 13 -10 30 -9 102 10 128
34 271 38 399 12 127 -26 135 -26 161 2 46 49 18 91 -75 113 -85 21 -284 26
-368 10z"/>
<path d="M2923 2609 c-56 -11 -124 -41 -143 -64 -10 -11 -15 -40 -15 -79 -1
-48 -8 -76 -34 -130 -25 -51 -35 -87 -37 -135 -5 -72 -4 -71 40 43 15 38 34
79 42 90 13 19 14 17 14 -29 1 -89 53 -166 137 -202 42 -17 121 -16 153 2 24
13 23 13 -17 8 -31 -4 -50 -1 -70 12 l-27 18 45 12 c55 13 105 47 129 87 18
29 18 30 29 9 9 -16 8 -29 -6 -58 -9 -21 -19 -42 -21 -48 -16 -34 41 35 57 71
64 135 -38 302 -186 305 -72 1 -3 18 77 18 83 1 131 -16 188 -64 38 -32 59
-68 82 -143 19 -62 35 -68 34 -13 -1 53 -35 116 -103 189 -48 53 -70 68 -125
88 -70 25 -158 30 -243 13z m19 -186 c34 -31 17 -83 -27 -83 -43 0 -60 47 -28
82 20 22 31 23 55 1z"/>
<path d="M1660 2575 c-65 -21 -123 -57 -136 -83 -6 -13 -20 -33 -31 -45 -51
-57 -91 -165 -78 -208 11 -32 23 -21 34 31 37 170 137 243 321 231 l35 -3 -47
-13 c-111 -30 -167 -93 -175 -197 -6 -76 14 -126 73 -177 46 -41 73 -51 133
-51 127 0 216 96 209 226 -4 79 3 73 70 -64 25 -51 47 -91 49 -89 10 11 -22
120 -54 186 -30 60 -37 86 -37 135 -1 57 -3 61 -35 83 -47 32 -92 43 -196 48
-64 4 -103 1 -135 -10z m80 -187 c23 -25 24 -32 10 -59 -12 -22 -59 -26 -78
-7 -19 19 -14 55 10 72 29 21 33 20 58 -6z m219 -201 c1 -18 -11 -40 -32 -63
-28 -30 -42 -37 -83 -41 -40 -4 -52 -1 -67 15 -17 19 -17 19 24 25 48 6 107
49 129 94 12 25 16 28 22 14 4 -9 7 -28 7 -44z"/>
<path d="M1404 1955 c-9 -35 7 -50 36 -35 28 15 24 54 -7 58 -17 3 -24 -3 -29
-23z"/>
<path d="M2177 1778 c-28 -63 -16 -129 32 -181 34 -38 64 -52 135 -67 150 -31
295 61 296 187 0 32 -18 83 -30 83 -3 0 -12 -27 -18 -59 -15 -72 -47 -103
-129 -127 -64 -18 -127 -13 -185 17 -49 25 -67 53 -77 125 l-8 59 -16 -37z"/>
<path d="M2896 1443 c-68 -29 -235 -63 -305 -63 -26 0 -70 -7 -97 -15 -58 -17
-106 -19 -154 -5 -19 6 -71 12 -115 15 -152 9 -268 30 -327 61 -25 13 -28 13
-28 -1 0 -32 40 -93 91 -139 61 -55 145 -97 253 -126 69 -19 97 -22 220 -17
117 3 153 8 211 29 186 67 305 161 329 261 8 33 1 33 -78 0z m-531 -118 c99 0
222 3 272 7 53 4 95 3 98 -2 3 -5 -4 -12 -17 -15 -102 -23 -104 -24 -48 -17
162 20 188 -1 72 -59 -87 -43 -148 -52 -362 -49 -190 2 -205 3 -273 33 -92 41
-88 80 7 71 49 -4 49 -2 -4 19 -24 9 -24 10 -5 17 11 4 34 5 50 2 17 -3 111
-6 210 -7z"/>
<path d="M2175 1290 c3 -5 16 -10 28 -9 21 0 21 1 2 9 -28 12 -37 12 -30 0z"/>
<path d="M2263 1283 c9 -2 23 -2 30 0 6 3 -1 5 -18 5 -16 0 -22 -2 -12 -5z"/>
<path d="M2127 1159 c7 -7 15 -10 18 -7 3 3 -2 9 -12 12 -14 6 -15 5 -6 -5z"/>
<path d="M2170 1140 c8 -5 20 -10 25 -10 6 0 3 5 -5 10 -8 5 -19 10 -25 10 -5
0 -3 -5 5 -10z"/>
<path d="M2248 1113 c7 -3 16 -2 19 1 4 3 -2 6 -13 5 -11 0 -14 -3 -6 -6z"/>
</g>
</svg>
