<svg xmlns="http://www.w3.org/2000/svg" width="1024" height="1024" viewBox="186 193 640 640">
<g transform="translate(0,1024) scale(0.1,-0.1)" fill="#000000">
<path d="M4688 7954 c-52 -28 -58 -54 -58 -273 l0 -201 29 -32 c26 -29 34 -32 107 -37 l79 -6 0 -124 0 -124 -130 -22 c-538 -92 -1001 -335 -1375 -721 -191 -197 -318 -379 -440 -629 -83 -169 -129 -292 -170 -454 -188 -739 -32 -1494 433 -2106 34 -43 108 -128 165 -187 363 -375 803 -618 1300 -718 191 -38 309 -50 486 -50 649 0 1259 246 1728 699 396 381 645 873 724 1426 21 145 24 467 6 605 -68 528 -287 1001 -636 1377 l-68 73 20 27 c11 16 31 39 45 52 l26 23 38 -31 c60 -50 84 -44 164 42 75 79 90 114 65 152 -8 13 -96 98 -195 189 -222 204 -213 201 -319 92 -62 -64 -72 -79 -72 -110 0 -25 9 -45 31 -71 l31 -35 -37 -46 c-21 -25 -43 -48 -51 -51 -7 -2 -48 20 -91 50 -288 201 -631 339 -998 402 l-130 22 0 124 0 124 70 5 c137 10 145 26 145 280 0 214 -6 236 -66 265 -47 22 -815 22 -856 -1z m737 -1110 c784 -113 1465 -663 1730 -1399 134 -370 162 -788 79 -1175 -138 -644 -569 -1186 -1177 -1480 -696 -337 -1519 -276 -2158 161 -520 356 -853 904 -929 1529 -15 127 -12 406 5 529 77 527 328 984 729 1328 364 311 805 492 1286 527 91 6 329 -5 435 -20z"/>
<path d="M3960 6080 c-10 -19 9 -41 197 -222 413 -401 445 -434 441 -458 -1 -13 -15 -32 -29 -42 -23 -18 -29 -18 -52 -6 -14 7 -108 88 -209 179 -334 303 -439 394 -464 404 -30 11 -58 -3 -62 -31 -3 -19 136 -177 475 -542 140 -152 155 -179 115 -215 -42 -38 -55 -27 -306 231 -133 136 -267 274 -299 308 -69 74 -100 92 -122 74 -8 -7 -15 -19 -15 -28 0 -16 119 -216 210 -352 105 -157 241 -332 326 -420 112 -116 195 -162 305 -168 42 -2 107 1 144 7 93 16 155 -2 227 -68 65 -60 284 -301 1122 -1240 136 -152 173 -176 260 -169 138 12 233 169 172 285 -9 18 -310 299 -668 626 -359 326 -680 623 -713 658 -82 88 -92 122 -77 247 13 103 6 177 -22 242 -39 94 -156 216 -341 356 -183 139 -544 364 -583 364 -12 0 -26 -9 -32 -20z"/>
<path d="M6344 6022 c-38 -28 -1056 -1055 -1108 -1118 l-26 -32 72 -70 c132 -127 122 -121 192 -104 34 7 107 22 163 31 123 21 142 34 338 228 234 231 370 424 452 643 71 188 70 406 -3 439 -34 15 -36 15 -80 -17z"/>
<path d="M4594 4317 c-138 -128 -359 -332 -492 -455 -133 -122 -249 -237 -259 -255 -35 -66 -12 -178 49 -234 57 -53 159 -68 227 -33 26 13 147 140 372 392 184 205 382 426 441 492 l108 119 -79 86 c-43 47 -87 93 -97 103 -18 15 -31 5 -270 -215z"/>
</g>
</svg>
