<?xml version="1.0" encoding="UTF-8" standalone="no"?>
<svg width="100%" height="100%" viewBox="0 0 151 124" version="1.1" xmlns="http://www.w3.org/2000/svg" style="fill-rule:evenodd;clip-rule:evenodd;stroke-linejoin:round;stroke-miterlimit:2;">
  <defs>
    <!-- Mask to cut out the triangle from the card -->
    <mask id="triangleCutout">
      <!-- White rectangle covers the whole area (visible) -->
      <rect x="0" y="0" width="151" height="124" fill="white"/>
      <!-- Black triangle creates the cutout (transparent) -->
      <path d="M92.969,63.989c0.385,0.084 7.838,1.598 11.371,2.448c2.656,0.639 4.019,0.889 3.594,2.435c-0.309,1.123 -13.707,17.231 -14.385,17.72c-0.139,0.1 -1.35,0.975 -2.11,-0.365c-0.821,-1.448 -2.578,-7.628 -5.008,-15.115c-1.834,-5.651 -1.896,-6.123 -1.969,-6.674c-0.339,-2.566 2.414,-1.689 4.763,-1.23c1.883,0.368 1.861,0.425 3.743,0.782Z" fill="black"/>
    </mask>
  </defs>
  <g>
    <g>
      <!-- Card shape with triangle cutout -->
      <path d="M138.336,35.83c0.161,0.598 10.047,38.817 11.815,45.799c0.058,0.229 0.582,2.297 0.376,2.928c-0.231,0.707 -0.463,0.537 -10.075,4.967c-6.416,2.957 -67.792,29.976 -73.691,32.572c-2.841,1.251 -4.13,2.372 -4.734,0.146c-2.281,-8.405 -4.949,-19.315 -5.361,-20.999c-0.446,-1.825 -6.168,-23.459 -6.708,-25.499c-0.287,-1.083 -0.346,-1.061 -3.695,-13.511c-0.505,-1.877 -1.353,-3.139 0.102,-4.1c0.339,-0.224 8.68,-3.851 10.758,-4.788c2.778,-1.252 48.985,-21.791 50.944,-22.621c1.121,-0.474 21.344,-9.442 22.437,-9.893c0.415,-0.171 2.659,-1.209 3.014,-1.141c0.703,0.136 0.958,1.02 0.992,1.136c0.344,1.19 0.226,1.219 3.826,15.003Z" mask="url(#triangleCutout)"/>
    </g>
    <path d="M5.008,57.73c-1.151,-4.201 -1.105,-4.212 -1.205,-4.577c-3.415,-12.44 -3.477,-12.412 -3.739,-13.502c-0.384,-1.604 0.99,-2.052 3.022,-2.881c2.899,-1.183 70.59,-31.739 77.251,-34.501c4.833,-2.004 5.099,-2.928 6.128,-1.745c0.339,0.39 0.221,0.455 1.761,6.218c0.403,1.506 0.413,1.485 0.83,2.982c0.597,2.146 0.693,2.597 -1.326,3.56c-2.192,1.046 -19.2,8.544 -20.872,9.281c-0.714,0.315 -8.551,3.77 -8.919,3.937c-14.228,6.487 -23.384,10.271 -38.336,17.05c-1.835,0.832 -3.83,1.321 -3.59,2.822c0.178,1.113 8.732,32.608 12.26,45.854c1.673,6.28 2.596,7.56 1.088,8.304c-0.247,0.122 -9.368,4.141 -9.846,4.312c-1.57,0.563 -1.81,0.179 -2.256,-1.429c-6.32,-22.793 -6.057,-22.851 -12.25,-45.686Z"/>
    <path d="M96.694,15.441c0.49,-0.216 6.098,-2.689 6.13,-2.702c5.077,-2.113 6.938,-3.712 7.651,-1.653c0.1,0.288 2.54,9.845 2.542,9.862c0.014,0.122 0.105,0.94 -0.479,1.46c-0.576,0.513 -66.54,29.628 -69.601,31.08c-3.817,1.81 -4.384,1.79 -4.139,3.465c0.093,0.637 2.35,8.913 2.56,9.686c0.172,0.631 8.3,31.311 10.89,40.6c0.624,2.238 -0.108,2.317 -2.77,3.539c-8.099,3.719 -8.136,3.848 -8.885,3.675c-0.781,-0.18 -1.061,-2.073 -1.651,-4.269c-1.313,-4.89 -5.286,-19.993 -5.559,-21.109c-3.052,-12.429 -8.092,-30.24 -9.127,-34.477c-1.234,-5.051 -2.148,-5.402 -0.799,-6.466c0.063,-0.049 67.378,-30.077 73.238,-32.69Z"/>
  </g>
</svg>
