<?xml version="1.0" encoding="UTF-8"?>
<!-- Generator: Adobe Illustrator 16.0.4, SVG Export Plug-In . SVG Version: 6.00 Build 0)  -->
<!DOCTYPE svg PUBLIC "-//W3C//DTD SVG 1.1//EN" "http://www.w3.org/Graphics/SVG/1.1/DTD/svg11.dtd">
<svg version="1.1" id="Layer_1" xmlns="http://www.w3.org/2000/svg" xmlns:xlink="http://www.w3.org/1999/xlink" x="0px" y="0px" width="475.333px" height="434px" viewBox="0 0 475.333 434" enable-background="new 0 0 475.333 434" xml:space="preserve">
<g>

		<line fill="none" stroke="#000000" stroke-width="2.4" stroke-linecap="round" stroke-linejoin="round" x1="197.206" y1="232.812" x2="270.029" y2="191.498"/>
	<path d="M272.607,194.658l-4.023-2.324l-4.027-2.323l7.648-2.091l7.645-2.09L272.607,194.658z M272.607,194.658"/>
	<path fill="none" stroke="#000000" stroke-width="1.093" stroke-linecap="round" stroke-linejoin="round" d="M272.607,194.659   l-4.023-2.324l-4.027-2.324l7.648-2.09l7.645-2.09L272.607,194.659z M272.607,194.659"/>
	<path class="route53" style="opacity: 0.3;" d="M316.856,354.828l3.836-0.906l4.31,2.488l-1.501,2.255l1.554,0.896l4.708-7.59l-1.469-0.848l-12.885,2.868   L316.856,354.828L316.856,354.828z M325.799,352.735c0.803-0.188,1.556-0.409,2.261-0.664c-0.324,0.371-0.697,0.867-1.121,1.491   l-1.396,2.048l-3.495-2.017L325.799,352.735L325.799,352.735z M327.249,360.828l3.354-1.937c0.589-0.34,1.107-0.561,1.556-0.663   c0.448-0.102,0.905-0.111,1.37-0.031c0.466,0.081,0.876,0.225,1.231,0.43c0.469,0.271,0.685,0.536,0.647,0.795   c-0.038,0.26-0.3,0.53-0.786,0.812l-4.201,2.426l1.266,0.731l3.756-2.17c0.666-0.384,1.324-0.563,1.973-0.537   c0.649,0.024,1.236,0.188,1.761,0.492c0.292,0.168,0.485,0.349,0.583,0.54c0.099,0.193,0.093,0.368-0.019,0.527   c-0.111,0.158-0.386,0.365-0.823,0.617l-4.074,2.353l1.259,0.727l4.438-2.562c0.739-0.428,1.087-0.858,1.044-1.293   c-0.044-0.436-0.435-0.866-1.176-1.294c-0.946-0.546-2.094-0.773-3.439-0.678c0.212-0.29,0.24-0.595,0.086-0.914   c-0.155-0.319-0.51-0.639-1.062-0.958c-0.498-0.286-1.037-0.486-1.619-0.6c-0.581-0.114-1.148-0.146-1.699-0.1l0.907-0.522   l-1.133-0.653l-6.466,3.732L327.249,360.828L327.249,360.828z M343.104,369.982l1.321,0.763c0.088-0.234,0.24-0.445,0.457-0.633   c0.216-0.186,0.834-0.574,1.852-1.163l1.462-0.844c0.488-0.281,0.803-0.487,0.948-0.619c0.226-0.217,0.343-0.437,0.352-0.658   c0.01-0.223-0.12-0.484-0.389-0.791c-0.268-0.305-0.722-0.642-1.359-1.009c-0.642-0.371-1.283-0.653-1.923-0.847   c-0.639-0.193-1.229-0.283-1.77-0.27c-0.539,0.015-1.096,0.121-1.666,0.32l1.092,0.8c0.595-0.186,1.123-0.25,1.588-0.19   c0.464,0.059,0.993,0.261,1.589,0.605c0.638,0.367,0.995,0.716,1.069,1.046c0.058,0.243-0.138,0.493-0.584,0.751   c-0.041,0.023-0.14,0.078-0.293,0.161c-0.63-0.193-1.508-0.555-2.636-1.084c-0.554-0.259-0.984-0.443-1.289-0.555   c-0.419-0.148-0.842-0.254-1.27-0.318s-0.855-0.068-1.285-0.015c-0.428,0.056-0.8,0.175-1.116,0.357   c-0.54,0.312-0.763,0.694-0.669,1.15c0.092,0.454,0.549,0.918,1.369,1.393c0.497,0.286,1.034,0.515,1.61,0.683   c0.575,0.169,1.27,0.287,2.083,0.359C343.382,369.573,343.2,369.775,343.104,369.982L343.104,369.982L343.104,369.982z    M345.589,368.134c-0.483,0.279-0.915,0.451-1.299,0.516c-0.5,0.082-1.031,0.067-1.596-0.046c-0.563-0.112-1.09-0.309-1.577-0.592   c-0.492-0.284-0.77-0.555-0.829-0.815c-0.062-0.26,0.056-0.475,0.347-0.644c0.19-0.109,0.424-0.176,0.696-0.199   c0.273-0.021,0.56,0.006,0.855,0.084c0.297,0.077,0.738,0.247,1.324,0.51c1.031,0.466,1.858,0.783,2.481,0.955L345.589,368.134   L345.589,368.134z M351.929,375.077l0.943-0.545l-3.452-1.992c-0.497-0.287-1.048-0.585-1.651-0.891l1.529,0.019l8.147-0.036   l0.726-0.418l-6.104-3.524l-0.889,0.515l3.045,1.758c0.412,0.237,0.901,0.505,1.464,0.803l-9.478-0.017l-0.89,0.513   L351.929,375.077L351.929,375.077z M354.407,375.672c0.064,0.707,0.618,1.362,1.664,1.966c0.652,0.376,1.385,0.647,2.199,0.812   c0.814,0.166,1.605,0.195,2.37,0.085c0.766-0.108,1.564-0.402,2.396-0.883c1.026-0.594,1.506-1.247,1.437-1.959   c-0.068-0.713-0.616-1.365-1.644-1.958c-0.923-0.533-1.945-0.847-3.067-0.94c-1.345-0.111-2.616,0.179-3.812,0.87   C354.857,374.296,354.343,374.964,354.407,375.672L354.407,375.672z M359.733,373.706c0.826,0.003,1.558,0.188,2.19,0.554   c0.622,0.36,0.938,0.779,0.946,1.26c0.007,0.48-0.39,0.95-1.189,1.413c-0.849,0.489-1.688,0.734-2.52,0.731   c-0.831-0.002-1.561-0.184-2.188-0.547c-0.633-0.364-0.952-0.786-0.957-1.266c-0.006-0.479,0.406-0.958,1.235-1.436   C358.078,373.938,358.906,373.701,359.733,373.706L359.733,373.706z M362.461,381.159l3.532-2.039   c0.827-0.479,1.586-0.69,2.273-0.636c0.688,0.056,1.302,0.238,1.841,0.549c0.337,0.195,0.565,0.403,0.685,0.624   c0.118,0.222,0.117,0.424-0.006,0.608s-0.407,0.405-0.854,0.663l-3.935,2.272l1.266,0.729l3.978-2.296   c0.507-0.293,0.839-0.511,0.994-0.654c0.239-0.225,0.377-0.456,0.416-0.696c0.041-0.238-0.059-0.508-0.296-0.807   s-0.58-0.579-1.029-0.838c-1.037-0.598-2.185-0.85-3.442-0.758l0.918-0.53l-1.138-0.657l-6.468,3.733L362.461,381.159   L362.461,381.159z"/>
	<path class="route53" style="opacity: 0.3;" d="M300.623,368.588l6.211-3.586l0.703,0.405c0.797,0.462,1.322,0.829,1.579,1.106   c0.255,0.275,0.396,0.596,0.423,0.959c0.028,0.363-0.092,1.136-0.358,2.317l-0.729,3.318l4.148,2.395l0.806-2.887   c0.328-1.146,0.475-1.991,0.44-2.534c-0.035-0.544-0.238-1.142-0.609-1.793c1.696,0.76,3.289,1.149,4.774,1.167   c1.483,0.018,2.784-0.296,3.902-0.94c0.879-0.508,1.41-1.103,1.594-1.787c0.183-0.683-0.008-1.342-0.573-1.976   c-0.563-0.635-1.765-1.482-3.601-2.542l-7.301-4.216l-14.878,8.59L300.623,368.588L300.623,368.588z M312.984,361.451l2.707,1.562   c1.406,0.813,2.232,1.31,2.48,1.491c0.481,0.372,0.722,0.735,0.724,1.092c0,0.355-0.249,0.678-0.75,0.967   c-0.447,0.258-0.937,0.405-1.468,0.442c-0.533,0.036-1.066-0.029-1.603-0.199c-0.536-0.169-1.635-0.732-3.299-1.693l-2.566-1.482   L312.984,361.451L312.984,361.451z M316.889,375.219c-0.324,0.809-0.192,1.643,0.396,2.498s1.453,1.611,2.595,2.271   c1.844,1.064,3.909,1.638,6.196,1.72c2.286,0.082,4.246-0.348,5.877-1.289c1.617-0.934,2.353-2.053,2.209-3.359   c-0.146-1.305-1.157-2.502-3.041-3.589c-1.219-0.704-2.555-1.207-4.011-1.507c-1.455-0.302-2.895-0.352-4.32-0.151   c-1.427,0.201-2.611,0.574-3.56,1.121C317.993,373.647,317.212,374.409,316.889,375.219L316.889,375.219z M325.789,374.059   c1.154,0.011,2.16,0.264,3.021,0.759c0.858,0.497,1.295,1.077,1.31,1.742c0.013,0.663-0.507,1.301-1.563,1.91   c-1.082,0.624-2.198,0.933-3.35,0.926c-1.15-0.009-2.155-0.261-3.015-0.758c-0.858-0.495-1.298-1.076-1.315-1.743   c-0.018-0.666,0.508-1.308,1.577-1.926C323.522,374.352,324.635,374.049,325.789,374.059L325.789,374.059z M340.361,391.531   l10.778-6.223l-3.293-1.901l-4.547,2.625c-1.543,0.891-2.595,1.402-3.154,1.537c-0.56,0.133-1.195,0.149-1.908,0.047   c-0.712-0.104-1.35-0.318-1.912-0.642c-0.492-0.284-0.8-0.577-0.92-0.878c-0.121-0.3-0.07-0.583,0.149-0.851   c0.222-0.267,1.089-0.838,2.604-1.713l4.953-2.859l-3.293-1.901l-6.82,3.938c-1.016,0.586-1.661,1.131-1.939,1.634   c-0.278,0.504-0.245,1.038,0.103,1.605c0.346,0.568,0.936,1.093,1.772,1.574c0.82,0.475,1.765,0.828,2.834,1.063   c1.071,0.234,2.12,0.316,3.148,0.246l-1.614,0.932L340.361,391.531L340.361,391.531z M358.007,389.272l3.806-2.197l-4.969-0.946   l-2.142,1.236l-1.512-0.873l-2.273,1.312l1.512,0.873l-4.699,2.713c-1.008,0.582-1.643,0.989-1.904,1.221   c-0.381,0.319-0.597,0.622-0.647,0.909c-0.052,0.286,0.074,0.617,0.379,0.992c0.304,0.375,0.753,0.733,1.347,1.076   c0.968,0.56,1.978,0.978,3.027,1.256l1.931-1.44c-0.76-0.227-1.293-0.429-1.598-0.604c-0.219-0.128-0.357-0.261-0.415-0.404   c-0.057-0.143-0.035-0.269,0.067-0.377c0.103-0.109,0.594-0.417,1.474-0.926l4.344-2.508l2.25,1.3l2.273-1.312L358.007,389.272   L358.007,389.272z M360.427,400.514c-0.595-0.062-1.15-0.241-1.666-0.54c-0.757-0.437-1.155-0.938-1.193-1.503   c-0.037-0.564,0.354-1.098,1.178-1.6l8.25,4.764c2.232-1.235,3.343-2.467,3.331-3.696c-0.012-1.229-0.943-2.379-2.795-3.448   c-1.648-0.95-3.518-1.445-5.607-1.485c-2.089-0.038-4.027,0.459-5.812,1.49c-1.496,0.862-2.323,1.814-2.484,2.854   c-0.187,1.307,0.804,2.586,2.968,3.835c1.366,0.788,2.777,1.289,4.233,1.5c1.454,0.211,2.913,0.138,4.377-0.221l-2.804-2.17   C361.681,400.504,361.022,400.577,360.427,400.514L360.427,400.514z M360.55,395.896c0.769-0.452,1.615-0.675,2.537-0.666   c0.923,0.009,1.743,0.22,2.462,0.636c0.671,0.388,1.027,0.841,1.066,1.359c0.038,0.519-0.343,1.023-1.144,1.513L360.55,395.896   L360.55,395.896z M373.769,409.835c0.262,1.002,1.187,1.961,2.772,2.877c1.984,1.146,4.19,1.662,6.621,1.55   c1.781-0.081,3.284-0.475,4.509-1.183c1.468-0.848,2.154-1.829,2.06-2.947c-0.097-1.117-0.875-2.099-2.335-2.942   c-0.767-0.441-1.675-0.782-2.728-1.022l3.042-1.162l6.211,3.586l2.669-1.541l-8.707-5.027l-9.43,3.497l2.337,1.735   c1.474,0.015,2.684,0.296,3.629,0.841c0.757,0.438,1.144,0.925,1.16,1.462c0.016,0.536-0.433,1.068-1.347,1.596   c-0.974,0.562-1.94,0.847-2.901,0.85c-0.96,0.004-1.784-0.192-2.472-0.589c-0.602-0.348-0.944-0.762-1.031-1.245   c-0.084-0.483,0.146-0.937,0.696-1.362l-3.575-1.725C373.9,407.914,373.506,408.831,373.769,409.835L373.769,409.835z    M386.995,417.406c0.249,1.039,1.151,2.007,2.706,2.903c1.641,0.948,3.472,1.474,5.493,1.579c2.021,0.104,3.686-0.221,4.992-0.974   c0.899-0.521,1.372-1.134,1.418-1.842c0.047-0.707-0.331-1.398-1.133-2.072c2.426,0.502,4.292,0.378,5.599-0.377   c0.92-0.531,1.342-1.24,1.269-2.127c-0.083-1.079-0.933-2.086-2.55-3.019c-0.946-0.547-1.954-0.949-3.023-1.212   c-1.069-0.262-2.086-0.361-3.05-0.296c-0.964,0.064-2.001,0.296-3.111,0.693l2.588,2.01c0.735-0.325,1.473-0.471,2.209-0.436   c0.737,0.034,1.386,0.214,1.948,0.539c0.57,0.33,0.879,0.679,0.925,1.049c0.047,0.371-0.181,0.7-0.682,0.989   c-0.589,0.34-1.295,0.478-2.119,0.411c-0.823-0.064-1.672-0.36-2.542-0.886l-2.687,1.131c0.729,0.256,1.303,0.507,1.725,0.75   c0.64,0.37,0.974,0.806,1,1.304c0.025,0.499-0.32,0.956-1.037,1.371c-0.759,0.437-1.592,0.65-2.503,0.64   c-0.913-0.01-1.708-0.212-2.388-0.604c-0.633-0.365-0.986-0.784-1.06-1.256s0.192-0.94,0.794-1.406l-3.522-1.646   C387.167,415.44,386.746,416.368,386.995,417.406L386.995,417.406z"/>
	<path fill="#ECECEC" d="M247.084,76.972l73.645,42.519l110.469-63.781L357.553,13.19L247.084,76.972z M247.084,76.972"/>
	<g>
		<defs>
			<rect id="SVGID_1_" x="52.94" y="12.093" width="379.919" height="388.8"/>
		</defs>
		<clipPath id="SVGID_2_">
			<use xlink:href="#SVGID_1_" overflow="visible"/>
		</clipPath>
		<path clip-path="url(#SVGID_2_)" fill="none" stroke="#555555" stroke-width="0.8" stroke-linejoin="round" d="M247.084,76.972    l73.645,42.519l110.469-63.781L357.553,13.19L247.084,76.972z M247.084,76.972"/>
	</g>
	<path fill="#CCCDCF" d="M247.936,76.697v85.039l73.645,42.521v-85.039L247.936,76.697z M247.936,76.697"/>
	<path fill="none" stroke="#555555" stroke-width="0.8" stroke-linejoin="round" d="M247.936,76.697v85.039l73.645,42.521v-85.039   L247.936,76.697z M247.936,76.697"/>
	<path fill="#B4B4B6" d="M321.58,119.218l110.469-63.781v85.039L321.58,204.257V119.218z M321.58,119.218"/>
	<g>
		<defs>
			<rect id="SVGID_3_" x="52.94" y="12.093" width="379.919" height="388.8"/>
		</defs>
		<clipPath id="SVGID_4_">
			<use xlink:href="#SVGID_3_" overflow="visible"/>
		</clipPath>
		<path clip-path="url(#SVGID_4_)" fill="none" stroke="#555555" stroke-width="0.8" stroke-linejoin="round" d="M321.58,119.218    l110.469-63.781v85.039L321.58,204.257V119.218z M321.58,119.218"/>
	</g>
	<polyline fill="none" stroke="#555555" stroke-width="0.8" stroke-linecap="square" points="320.729,76.972 284.76,97.955   284.76,182.994  "/>
	<g>
		<defs>
			<rect id="SVGID_5_" x="52.94" y="12.093" width="379.919" height="388.8"/>
		</defs>
		<clipPath id="SVGID_6_">
			<use xlink:href="#SVGID_5_" overflow="visible"/>
		</clipPath>
		<path clip-path="url(#SVGID_6_)" fill="none" stroke="#555555" stroke-width="0.8" d="M284.76,55.437l73.645,42.519v85.039     M321.58,34.179l73.648,42.519v85.039 M394.377,34.451l-36.824,21.258"/>
		<path clip-path="url(#SVGID_6_)" fill="none" stroke="#000000" stroke-width="1.6" stroke-linejoin="round" d="M247.936,161.736    V76.697l110.469-63.781l73.645,42.521v85.039L321.58,204.257L247.936,161.736z M247.936,161.736"/>
	</g>
	<path fill="#707070" d="M334.467,53.736l26.504,15.301L339.35,76.69c-7.324-1.411-15.691-6.243-18.133-10.469L334.467,53.736z    M334.467,53.736"/>
	<path fill="none" stroke="#707070" stroke-width="0.2273" stroke-linejoin="round" d="M334.467,53.737l26.504,15.3l-21.622,7.652   c-7.323-1.41-15.69-6.241-18.132-10.468L334.467,53.737z M334.467,53.737"/>
	<polyline fill="none" stroke="#000000" stroke-width="2.4" stroke-linecap="round" stroke-linejoin="round" points="   271.572,359.658 125.557,275.296 158.909,255.417  "/>
	<path d="M161.51,258.839l-4.023-2.324l-4.024-2.321l7.645-2.089l7.644-2.094L161.51,258.839z M161.51,258.839"/>
	<path fill="none" stroke="#000000" stroke-width="1.093" stroke-linecap="round" stroke-linejoin="round" d="M161.511,258.839   l-4.024-2.324l-4.022-2.32l7.644-2.09l7.644-2.094L161.511,258.839z M161.511,258.839"/>
	<g>
		<defs>
			<rect id="SVGID_7_" x="52.94" y="12.093" width="379.919" height="388.8"/>
		</defs>
		<clipPath id="SVGID_8_">
			<use xlink:href="#SVGID_7_" overflow="visible"/>
		</clipPath>
	</g>
	<path fill="#707070" d="M181.899,73.585l3.835-0.907l4.311,2.488l-1.501,2.255l1.554,0.897l4.708-7.589l-1.469-0.85l-12.886,2.869   L181.899,73.585L181.899,73.585z M190.841,71.491c0.804-0.188,1.557-0.409,2.26-0.663c-0.324,0.37-0.696,0.868-1.12,1.49   l-1.396,2.049l-3.495-2.018L190.841,71.491L190.841,71.491z M192.291,79.585l3.355-1.938c0.589-0.34,1.107-0.561,1.556-0.662   c0.449-0.103,0.905-0.112,1.37-0.032c0.464,0.081,0.875,0.225,1.231,0.43c0.469,0.271,0.684,0.536,0.646,0.796   c-0.037,0.26-0.299,0.53-0.787,0.812l-4.201,2.426l1.266,0.73l3.757-2.169c0.666-0.385,1.323-0.564,1.973-0.538   c0.649,0.026,1.236,0.19,1.761,0.493c0.29,0.168,0.485,0.348,0.583,0.541c0.098,0.191,0.091,0.367-0.019,0.526   c-0.111,0.158-0.385,0.364-0.824,0.617l-4.074,2.352l1.258,0.727l4.439-2.562c0.739-0.426,1.087-0.856,1.043-1.292   c-0.043-0.436-0.435-0.867-1.176-1.294c-0.946-0.547-2.092-0.772-3.438-0.678c0.212-0.291,0.241-0.596,0.085-0.914   c-0.155-0.319-0.509-0.639-1.062-0.958c-0.497-0.287-1.036-0.487-1.619-0.601c-0.582-0.112-1.148-0.146-1.699-0.098l0.908-0.524   l-1.132-0.653l-6.467,3.733L192.291,79.585L192.291,79.585z M208.146,88.739l1.322,0.764c0.088-0.235,0.24-0.446,0.456-0.633   c0.216-0.188,0.833-0.575,1.853-1.163l1.462-0.844c0.487-0.281,0.803-0.488,0.947-0.621c0.226-0.217,0.343-0.436,0.353-0.657   c0.009-0.222-0.12-0.485-0.389-0.79c-0.268-0.306-0.721-0.642-1.358-1.011c-0.643-0.37-1.283-0.652-1.923-0.847   c-0.64-0.193-1.229-0.283-1.77-0.269c-0.541,0.014-1.096,0.121-1.667,0.321l1.091,0.798c0.595-0.186,1.125-0.25,1.589-0.19   c0.463,0.061,0.994,0.262,1.589,0.605c0.637,0.368,0.994,0.717,1.07,1.046c0.056,0.244-0.139,0.495-0.586,0.753   c-0.04,0.023-0.138,0.076-0.293,0.161c-0.629-0.195-1.507-0.557-2.634-1.086c-0.555-0.259-0.984-0.443-1.29-0.555   c-0.418-0.147-0.841-0.254-1.269-0.317c-0.429-0.064-0.856-0.069-1.284-0.014c-0.428,0.055-0.801,0.174-1.118,0.356   c-0.54,0.312-0.763,0.695-0.669,1.149c0.094,0.455,0.55,0.92,1.371,1.393c0.497,0.287,1.033,0.515,1.609,0.683   c0.576,0.169,1.27,0.289,2.084,0.36C208.424,88.33,208.243,88.532,208.146,88.739L208.146,88.739L208.146,88.739z M210.632,86.891   c-0.483,0.278-0.917,0.45-1.3,0.515c-0.499,0.082-1.03,0.067-1.594-0.045c-0.565-0.113-1.091-0.31-1.579-0.591   c-0.492-0.284-0.768-0.557-0.829-0.817c-0.06-0.26,0.056-0.474,0.348-0.643c0.19-0.11,0.422-0.177,0.696-0.198   c0.273-0.023,0.558,0.004,0.855,0.082c0.297,0.077,0.738,0.248,1.323,0.511c1.033,0.465,1.86,0.782,2.481,0.954L210.632,86.891   L210.632,86.891z M216.971,93.834l0.944-0.545l-3.453-1.993c-0.497-0.287-1.047-0.583-1.651-0.891l1.529,0.019l8.147-0.035   l0.724-0.418l-6.103-3.523l-0.889,0.513l3.044,1.758c0.413,0.238,0.9,0.506,1.464,0.803l-9.479-0.016l-0.889,0.514L216.971,93.834   L216.971,93.834z M219.45,94.428c0.064,0.708,0.618,1.363,1.664,1.967c0.651,0.376,1.384,0.646,2.199,0.813   c0.815,0.165,1.604,0.193,2.37,0.085c0.766-0.109,1.563-0.404,2.396-0.885c1.027-0.593,1.506-1.245,1.438-1.958   c-0.07-0.713-0.617-1.365-1.644-1.958c-0.924-0.533-1.946-0.847-3.067-0.941c-1.345-0.11-2.617,0.18-3.814,0.871   C219.9,93.052,219.386,93.722,219.45,94.428L219.45,94.428z M224.776,92.462c0.827,0.004,1.557,0.188,2.189,0.554   c0.624,0.36,0.939,0.78,0.946,1.261c0.008,0.479-0.388,0.951-1.188,1.412c-0.849,0.49-1.688,0.734-2.52,0.732   s-1.561-0.185-2.189-0.546c-0.633-0.366-0.951-0.788-0.957-1.267c-0.005-0.479,0.406-0.957,1.234-1.436   C223.122,92.694,223.948,92.458,224.776,92.462L224.776,92.462z M227.504,99.915l3.531-2.039c0.828-0.478,1.586-0.689,2.274-0.635   c0.687,0.055,1.301,0.237,1.84,0.55c0.337,0.194,0.565,0.401,0.684,0.623c0.119,0.221,0.116,0.424-0.007,0.608   c-0.122,0.185-0.407,0.406-0.853,0.664l-3.934,2.271l1.266,0.73l3.976-2.295c0.508-0.293,0.839-0.513,0.995-0.656   c0.237-0.224,0.376-0.456,0.416-0.695s-0.059-0.509-0.296-0.808s-0.581-0.577-1.031-0.838c-1.036-0.598-2.182-0.85-3.442-0.756   l0.92-0.531l-1.14-0.658l-6.466,3.734L227.504,99.915L227.504,99.915z"/>
	<path fill="#707070" d="M186.811,99.596c0.294,1.175,1.528,2.388,3.7,3.642c1.492,0.862,2.919,1.477,4.281,1.846   c1.362,0.368,2.689,0.495,3.98,0.381c1.291-0.113,2.363-0.416,3.215-0.908c0.94-0.543,1.501-1.131,1.684-1.764   c0.182-0.634,0.053-1.29-0.386-1.97c-0.44-0.68-1.331-1.606-2.673-2.779c-1.342-1.175-2.073-1.979-2.193-2.415   c-0.094-0.343,0.035-0.616,0.388-0.819c0.386-0.223,0.876-0.295,1.474-0.215c0.929,0.122,1.897,0.474,2.905,1.056   c0.977,0.563,1.542,1.084,1.695,1.559c0.154,0.476-0.078,0.977-0.693,1.504l3.601,1.927c1.312-0.82,1.833-1.782,1.561-2.884   c-0.271-1.103-1.484-2.275-3.641-3.521c-1.321-0.762-2.62-1.313-3.899-1.653c-1.278-0.34-2.495-0.462-3.651-0.368   c-1.156,0.095-2.113,0.36-2.871,0.798c-1.178,0.68-1.648,1.561-1.412,2.642c0.168,0.77,0.982,1.806,2.443,3.11   c1.134,1.014,1.843,1.674,2.127,1.979c0.411,0.448,0.612,0.812,0.604,1.093c-0.009,0.279-0.189,0.521-0.541,0.725   c-0.548,0.316-1.31,0.43-2.286,0.339c-0.976-0.091-2.022-0.459-3.139-1.104c-1.055-0.608-1.663-1.225-1.824-1.849   c-0.161-0.625,0.147-1.279,0.926-1.963l-3.659-1.784C187.088,97.289,186.516,98.422,186.811,99.596L186.811,99.596z    M202.417,108.759c0.249,1.038,1.15,2.006,2.706,2.904c1.641,0.947,3.472,1.473,5.493,1.577c2.022,0.105,3.686-0.22,4.991-0.974   c0.899-0.52,1.373-1.133,1.419-1.841c0.045-0.707-0.332-1.398-1.134-2.072c2.427,0.503,4.293,0.377,5.599-0.377   c0.92-0.531,1.343-1.24,1.269-2.127c-0.083-1.08-0.934-2.086-2.551-3.02c-0.945-0.546-1.952-0.949-3.022-1.212   c-1.069-0.262-2.086-0.361-3.05-0.296c-0.963,0.064-2.001,0.296-3.111,0.693l2.588,2.011c0.735-0.326,1.471-0.471,2.208-0.437   c0.737,0.035,1.387,0.215,1.949,0.539c0.571,0.33,0.878,0.68,0.924,1.05s-0.181,0.7-0.682,0.989   c-0.588,0.34-1.295,0.477-2.119,0.411c-0.824-0.065-1.671-0.361-2.541-0.887l-2.688,1.132c0.728,0.257,1.303,0.506,1.725,0.75   c0.641,0.369,0.974,0.805,1,1.304c0.026,0.499-0.32,0.956-1.037,1.37c-0.757,0.438-1.592,0.651-2.503,0.64   c-0.911-0.01-1.707-0.211-2.387-0.604c-0.633-0.366-0.986-0.785-1.059-1.257c-0.074-0.472,0.19-0.94,0.793-1.404l-3.523-1.647   C202.587,106.793,202.168,107.721,202.417,108.759L202.417,108.759z"/>
	<path fill="#CCCDCF" d="M149.741,232.604v-5.672l4.91-2.832L149.741,232.604z M149.741,232.604"/>
	<path fill="none" stroke="#555555" stroke-width="0.8" stroke-linejoin="round" d="M149.741,232.604v-5.672l4.91-2.832   L149.741,232.604z M149.741,232.604"/>
	<path fill="#B4B4B6" d="M233.206,241.108v5.668l-4.911-8.504L233.206,241.108z M233.206,241.108"/>
	<path fill="none" stroke="#555555" stroke-width="0.8" stroke-linejoin="round" d="M233.206,241.108v5.668l-4.911-8.504   L233.206,241.108z M233.206,241.108"/>
	<path fill="#CCCDCF" d="M154.651,224.101l49.098,28.343v-85.039c0,0-26.786-15.461-49.098-28.347V224.101z M154.651,224.101"/>
	<path fill="none" stroke="#555555" stroke-width="0.8" stroke-linejoin="round" d="M154.651,224.101l49.098,28.343v-85.039   c0,0-26.786-15.461-49.098-28.347V224.101z M154.651,224.101"/>
	<path fill="#CCCDCF" d="M208.659,260.947h-9.821l4.911-8.504L208.659,260.947z M208.659,260.947"/>
	<path fill="none" stroke="#555555" stroke-width="0.8" stroke-linejoin="round" d="M208.659,260.947h-9.821l4.911-8.504   L208.659,260.947z M208.659,260.947"/>
	<path fill="#ECECEC" d="M154.651,139.058l49.098,28.347l24.546-14.171l-49.097-28.348L154.651,139.058z M154.651,139.058"/>
	<path fill="none" stroke="#555555" stroke-width="0.8" stroke-linejoin="round" d="M154.651,139.058l49.098,28.347l24.546-14.171   l-49.097-28.348L154.651,139.058z M154.651,139.058"/>
	<path fill="#B4B4B6" d="M203.749,167.404l24.546-14.171v85.039l-24.546,14.171V167.404z M203.749,167.404"/>
	<path fill="none" stroke="#555555" stroke-width="0.8" stroke-linejoin="round" d="M203.749,167.404l24.546-14.171v85.039   l-24.546,14.171V167.404z M203.749,167.404"/>
	<path fill="#B4B4B6" d="M203.749,252.443l4.91,8.504l24.547-14.171l-4.911-8.504L203.749,252.443z M203.749,252.443"/>
	<path fill="none" stroke="#555555" stroke-width="0.8" d="M203.749,252.443l4.91,8.504l24.547-14.171l-4.911-8.504L203.749,252.443   z M203.749,252.443"/>
	<path fill="#CCCDCF" d="M154.651,224.101l-4.91,8.504l49.097,28.343l4.911-8.504L154.651,224.101z M154.651,224.101"/>
	<path fill="none" stroke="#555555" stroke-width="0.8" d="M154.651,224.101l-4.91,8.504l49.097,28.343l4.911-8.504L154.651,224.101   z M154.651,224.101"/>
	<path fill="none" stroke="#000000" stroke-width="1.6" stroke-linejoin="round" d="M149.741,232.604v-5.672l4.91-2.832v-85.043   l24.547-14.172l49.097,28.348v85.039l4.911,2.836v5.668l-24.547,14.171h-9.821L149.741,232.604z M149.741,232.604"/>
	<path fill="#707070" d="M165.756,186.709v-4.276l1.282,0.742l0.629-9.688c-2.93,2.176-4.75,6.489-4.75,12.422   c0,2.575,0.343,5.239,0.968,7.887l2.364-6.801L165.756,186.709z M165.756,186.709"/>
	<path fill="#707070" d="M170.499,204.943v-2.354l-5.981-6.453c2.52,8.379,7.766,16.229,13.875,20.022l-5.043-9.565L170.499,204.943   z M170.499,204.943"/>
	<path fill="#707070" d="M191.491,197.291v4.277l-0.367-0.21l2.808,9.843c0.637-1.933,0.985-4.222,0.985-6.815   c0-5.957-1.832-12.399-4.782-17.974l0.168,10.192L191.491,197.291z M191.491,197.291"/>
	<path fill="#707070" d="M177.21,177.951l3.418,1.974v1.059l8.359,3.402c-2.75-4.563-6.254-8.371-10.07-10.574   c-3.817-2.203-7.321-2.442-10.075-1.055l8.368,6.315V177.951z M177.21,177.951"/>
	<path fill="#707070" d="M187.585,214.812l-2.536-1.465l-5.011,3.719c5.843,2.839,10.828,0.992,13.269-4.282l-5.722-0.229V214.812z    M187.585,214.812"/>
	<path fill="#707070" d="M177.21,180.576l-8.43-6.367l-0.621,9.609l0.566,0.329l8.485-3.325V180.576z M177.21,180.576"/>
	<path fill="#707070" d="M180.628,182.869l7.976,12.754l0.582,0.336l-0.168-10.062l-8.39-3.414V182.869z M180.628,182.869"/>
	<path fill="#707070" d="M184.167,211.443l-10.25-5.921v0.05l5.281,10.024l4.969-3.692V211.443z M184.167,211.443"/>
	<path fill="#707070" d="M184.167,209.007l-4.696-10.66l-1.07-0.617l-4.484,5.281v1.026l10.25,5.919V209.007z M184.167,209.007"/>
	<path fill="#707070" d="M188.073,199.597v-0.789l-7.445-1.75v1.508l4.695,10.66l0.504,0.293l2.828-9.59L188.073,199.597z    M188.073,199.597"/>
	<path fill="#707070" d="M192.897,211.163l-3-10.516l-0.066-0.039l-2.829,9.589l0.583,0.336v0.418L192.897,211.163z    M192.897,211.163"/>
	<path fill="#707070" d="M180.628,195.522l7.445,1.75v-0.625l-7.981-12.754l-0.617-0.356v10.535l1.153,0.664V195.522z    M180.628,195.522"/>
	<path fill="#707070" d="M171.217,201.08l-3.66-13.332l-0.113-0.062l-2.531,7.289l5.586,6.022v-0.328L171.217,201.08z    M171.217,201.08"/>
	<path fill="#707070" d="M177.21,195.111l-8.036-7.246v0.817l-0.402-0.231l3.66,13.332l0.293,0.172l4.485-5.285V195.111z    M177.21,195.111"/>
	<path fill="#707070" d="M169.174,186.334l8.036,7.246v-0.815l1.148,0.664v-10.535l-0.699-0.407l-8.485,3.325V186.334z    M169.174,186.334"/>
		 <g class="route53" style="opacity: 0.3;">
	<path fill="#CCCDCF" d="M358.65,282.269l29.457-2.836V350.3l-29.457,2.836V282.269z M358.65,282.269"/>
	<path fill="none" stroke="#555555" stroke-width="0.8" d="M358.65,282.269l29.457-2.836V350.3l-29.457,2.836V282.269z    M358.65,282.269"/>
	<path fill="#CCCDCF" d="M285.002,239.749v70.862l73.648,42.524v-70.867L285.002,239.749z M285.002,239.749"/>
	<path fill="none" stroke="#555555" stroke-width="0.8" d="M285.002,239.749v70.862l73.648,42.524v-70.867L285.002,239.749z    M285.002,239.749"/>
	<path fill="#B4B4B6" d="M388.107,279.433l19.641-53.86v70.868L388.107,350.3V279.433z M388.107,279.433"/>
	<path fill="none" stroke="#555555" stroke-width="0.8" d="M388.107,279.433l19.641-53.86v70.868L388.107,350.3V279.433z    M388.107,279.433"/>
	<path fill="#ECECEC" d="M289.912,222.74l-4.91,17.009l73.648,42.52l29.457-2.836l19.641-53.86l-24.551-14.171L289.912,222.74z    M289.912,222.74"/>
	<path fill="none" stroke="#555555" stroke-width="0.8" stroke-linejoin="round" d="M289.912,222.74l-4.91,17.009l73.648,42.52   l29.457-2.836l19.641-53.86l-24.551-14.171L289.912,222.74z M289.912,222.74"/>
	<path fill="none" stroke="#000000" stroke-width="1.6" stroke-linejoin="round" d="M285.002,310.611l73.648,42.524l29.457-2.836   l19.641-53.859v-70.868l-24.551-14.171l-93.285,11.339l-4.91,17.009V310.611z M285.002,310.611"/>
	<path fill="#707070" d="M367.545,252.624c-8.391,3.008-13.254-2.973-23.848-3.98c-0.602-0.059-0.52-0.301-0.52-0.301   c0.199-4.435-14.625-9.195-8.23-14.539c3.496-2.926,6.984-1.516,10.375-3.277c2.617-1.363,2.852-4.359,2.852-4.359l11.246-0.164   c0,0,0.68,5.844,10.816,6.246c0.406,0.016,0.688,0.34,0.688,0.414c0.066,5.909,10.422,6,10.422,6l-0.613,5.78   c0,0-5.023,0.036-7.719,1.743C369.834,248.197,372.197,250.951,367.545,252.624L367.545,252.624z M367.545,252.624"/>
		<line fill="none" stroke="#000000" stroke-width="2.4" stroke-linecap="round" stroke-linejoin="round" x1="225.909" y1="387.167" x2="306.264" y2="340.562"/>
	<path d="M308.842,343.722l-8.047-4.649l15.289-4.179L308.842,343.722z M308.842,343.722"/>
	<path fill="none" stroke="#000000" stroke-width="1.093" stroke-linecap="round" stroke-linejoin="round" d="M308.842,343.722   l-8.047-4.648l15.29-4.18L308.842,343.722z M308.842,343.722"/>
</g>
	<path fill="#707070" d="M234.42,342.472c0,8.109-4.929,11.836-11.011,8.324c-6.082-3.513-11.012-12.931-11.012-21.039   c0-8.109,4.93-11.836,11.012-8.324C229.491,324.94,234.42,334.361,234.42,342.472L234.42,342.472z M234.42,342.472"/>
	<path fill="#707070" d="M213.588,382.925l19.641,11.34v-13.231l2.457,1.418v13.231l7.363,4.25v-18.899   c0-7.558-6.136-17.718-11.047-20.55l-17.187-9.922c-4.906-2.836-11.047,0.234-11.047,7.793v18.898l7.367,4.254v-13.23l2.453,1.417   V382.925z M213.588,382.925"/>
	<g>
		<path fill="#707070" d="M93.946,219.587l3.836-0.908l4.31,2.489l-1.501,2.256l1.554,0.896l4.708-7.59l-1.469-0.848l-12.885,2.868    L93.946,219.587L93.946,219.587z M102.888,217.494c0.803-0.189,1.557-0.41,2.26-0.664c-0.324,0.371-0.697,0.867-1.12,1.49    l-1.396,2.049l-3.495-2.019L102.888,217.494L102.888,217.494z M104.338,225.587l3.355-1.937c0.589-0.34,1.107-0.561,1.556-0.663    s0.905-0.113,1.37-0.032c0.465,0.082,0.876,0.224,1.232,0.431c0.469,0.27,0.684,0.534,0.647,0.795    c-0.038,0.26-0.3,0.53-0.787,0.812l-4.201,2.426l1.266,0.729l3.756-2.168c0.666-0.385,1.324-0.563,1.974-0.539    c0.648,0.026,1.236,0.19,1.761,0.494c0.291,0.168,0.485,0.349,0.583,0.54c0.098,0.192,0.091,0.368-0.02,0.527    c-0.11,0.158-0.385,0.363-0.824,0.617l-4.074,2.353l1.259,0.727l4.439-2.563c0.739-0.427,1.087-0.857,1.043-1.292    c-0.043-0.436-0.435-0.867-1.175-1.294c-0.947-0.548-2.093-0.773-3.44-0.678c0.213-0.29,0.241-0.595,0.086-0.914    s-0.509-0.639-1.062-0.958c-0.498-0.287-1.037-0.486-1.618-0.601c-0.582-0.113-1.148-0.146-1.7-0.099l0.907-0.524l-1.132-0.653    l-6.466,3.734L104.338,225.587L104.338,225.587z M120.194,234.741l1.322,0.764c0.088-0.234,0.24-0.445,0.456-0.633    c0.216-0.188,0.833-0.575,1.853-1.164l1.462-0.844c0.487-0.281,0.803-0.487,0.948-0.619c0.225-0.217,0.342-0.437,0.352-0.658    c0.009-0.223-0.12-0.486-0.388-0.791c-0.269-0.305-0.722-0.642-1.359-1.009c-0.643-0.371-1.283-0.653-1.923-0.847    c-0.64-0.193-1.229-0.284-1.77-0.27c-0.541,0.015-1.096,0.121-1.667,0.32l1.091,0.799c0.595-0.187,1.125-0.249,1.589-0.189    c0.463,0.059,0.994,0.261,1.589,0.604c0.637,0.369,0.994,0.718,1.069,1.048c0.057,0.243-0.139,0.493-0.584,0.751    c-0.041,0.023-0.139,0.078-0.294,0.161c-0.629-0.194-1.507-0.557-2.634-1.085c-0.555-0.26-0.984-0.444-1.289-0.554    c-0.419-0.148-0.842-0.255-1.27-0.318c-0.428-0.064-0.856-0.07-1.284-0.015c-0.428,0.056-0.801,0.175-1.118,0.357    c-0.54,0.312-0.763,0.694-0.669,1.15c0.093,0.454,0.55,0.918,1.371,1.392c0.497,0.287,1.033,0.514,1.609,0.683    c0.576,0.168,1.271,0.288,2.084,0.36C120.472,234.332,120.29,234.534,120.194,234.741L120.194,234.741L120.194,234.741z     M122.679,232.893c-0.483,0.278-0.917,0.451-1.3,0.516c-0.499,0.082-1.03,0.065-1.594-0.046c-0.565-0.112-1.091-0.311-1.578-0.592    c-0.492-0.284-0.769-0.557-0.83-0.815c-0.061-0.261,0.056-0.475,0.348-0.644c0.19-0.109,0.422-0.177,0.696-0.199    c0.273-0.023,0.558,0.005,0.855,0.082c0.297,0.078,0.738,0.249,1.323,0.512c1.032,0.464,1.86,0.783,2.481,0.955L122.679,232.893    L122.679,232.893z M129.018,239.836l0.944-0.545l-3.453-1.993c-0.497-0.287-1.047-0.584-1.651-0.89l1.529,0.018l8.147-0.035    l0.724-0.417l-6.103-3.525l-0.889,0.513l3.045,1.758c0.412,0.239,0.9,0.507,1.463,0.805l-9.479-0.017l-0.889,0.514    L129.018,239.836L129.018,239.836z M131.498,240.431c0.063,0.707,0.618,1.362,1.664,1.966c0.651,0.376,1.384,0.647,2.199,0.813    c0.815,0.165,1.604,0.193,2.37,0.084c0.765-0.107,1.564-0.404,2.396-0.885c1.027-0.592,1.506-1.244,1.437-1.957    s-0.617-1.365-1.644-1.958c-0.924-0.533-1.946-0.847-3.067-0.94c-1.345-0.111-2.617,0.179-3.814,0.87    C131.947,239.054,131.433,239.724,131.498,240.431L131.498,240.431z M136.823,238.464c0.827,0.004,1.557,0.188,2.19,0.555    c0.624,0.359,0.939,0.779,0.947,1.26c0.007,0.48-0.389,0.951-1.189,1.412c-0.849,0.49-1.688,0.734-2.52,0.732    c-0.831-0.002-1.561-0.185-2.189-0.547c-0.633-0.365-0.952-0.787-0.957-1.266c-0.006-0.479,0.406-0.957,1.234-1.436    C135.168,238.696,135.996,238.46,136.823,238.464L136.823,238.464z M139.551,245.917l3.532-2.039    c0.828-0.479,1.586-0.689,2.274-0.635c0.687,0.055,1.301,0.237,1.84,0.549c0.338,0.195,0.565,0.403,0.685,0.625    c0.119,0.219,0.116,0.423-0.006,0.607c-0.123,0.185-0.408,0.406-0.854,0.664l-3.934,2.27l1.266,0.731l3.977-2.296    c0.507-0.293,0.838-0.511,0.995-0.656c0.237-0.223,0.376-0.455,0.416-0.693c0.04-0.24-0.059-0.509-0.296-0.808    s-0.581-0.579-1.031-0.838c-1.036-0.599-2.183-0.851-3.442-0.757l0.919-0.531l-1.139-0.657l-6.466,3.733L139.551,245.917    L139.551,245.917z"/>
		<path fill="#707070" d="M36.317,210.691l14.878-8.59l-2.707-1.563l-14.878,8.59L36.317,210.691L36.317,210.691z M41.201,212.066    c-0.003,1.157,0.753,2.173,2.269,3.047c0.945,0.547,2.04,0.919,3.283,1.116c1.244,0.198,2.557,0.179,3.94-0.056    s2.631-0.674,3.743-1.315c1.491-0.861,2.325-1.884,2.503-3.068c0.177-1.186-0.555-2.252-2.195-3.198    c-0.976-0.563-2.072-0.946-3.287-1.146c-1.215-0.201-2.499-0.19-3.851,0.03c-1.352,0.222-2.556,0.638-3.614,1.248    C42.135,209.796,41.204,210.911,41.201,212.066L41.201,212.066z M49.813,209.403c1.052-0.042,1.92,0.134,2.601,0.527    c0.689,0.397,0.999,0.901,0.929,1.512c-0.07,0.609-0.641,1.225-1.713,1.843c-1.1,0.636-2.174,0.976-3.223,1.02    c-1.049,0.046-1.914-0.129-2.595-0.522c-0.696-0.401-1.012-0.907-0.945-1.515c0.066-0.608,0.646-1.228,1.739-1.859    C47.69,209.781,48.76,209.447,49.813,209.403L49.813,209.403z M60.317,224.549l10.778-6.223l-2.707-1.563l-4.547,2.625    c-1.461,0.844-2.467,1.355-3.018,1.532c-0.551,0.179-1.153,0.237-1.809,0.175c-0.655-0.062-1.209-0.223-1.661-0.483    c-0.397-0.23-0.631-0.486-0.702-0.77c-0.071-0.282,0.044-0.558,0.344-0.826c0.301-0.268,1.158-0.81,2.572-1.626l4.953-2.859    l-2.707-1.562l-6.826,3.94c-1.07,0.618-1.755,1.164-2.057,1.639c-0.3,0.477-0.338,0.955-0.113,1.438    c0.226,0.481,0.674,0.917,1.345,1.304c0.663,0.382,1.463,0.654,2.401,0.815c0.938,0.161,1.887,0.181,2.846,0.059l-1.613,0.932    L60.317,224.549L60.317,224.549z M87.36,222.981l-2.707-1.563l-5.348,3.088c0.086-0.527,0.008-1.006-0.236-1.437    c-0.246-0.431-0.653-0.811-1.222-1.14c-1.209-0.697-2.697-1.014-4.462-0.949c-1.766,0.064-3.571,0.628-5.414,1.693    c-1.83,1.056-2.814,2.113-2.953,3.173c-0.139,1.059,0.362,1.917,1.503,2.576c0.593,0.343,1.326,0.588,2.196,0.734    c0.871,0.147,1.817,0.164,2.84,0.053l-1.583,0.914l2.508,1.447L87.36,222.981L87.36,222.981z M73.987,223.149    c0.973-0.057,1.77,0.094,2.394,0.454c0.654,0.378,0.921,0.847,0.799,1.408c-0.122,0.561-0.803,1.199-2.044,1.916    c-1.121,0.646-2.177,1.005-3.17,1.073c-0.992,0.069-1.785-0.067-2.377-0.408c-0.444-0.257-0.723-0.557-0.836-0.901    c-0.114-0.344-0.027-0.709,0.261-1.096c0.287-0.387,0.919-0.861,1.897-1.425C71.989,223.548,73.014,223.207,73.987,223.149    L73.987,223.149z M78.024,234.771l6.323-3.65l5.906,3.41l2.517-1.453l-5.906-3.41l3.522-2.033l6.82,3.938l2.517-1.453    l-9.656-5.575l-14.878,8.59L78.024,234.771L78.024,234.771z M93.1,239.626c1.687-0.974,2.907-1.605,3.662-1.898    c0.755-0.291,1.395-0.423,1.921-0.398c0.525,0.027,0.976,0.148,1.351,0.363c0.398,0.23,0.665,0.564,0.799,1.001l3.33-0.948    c-0.204-0.531-0.614-0.975-1.232-1.332c-0.445-0.257-0.957-0.415-1.533-0.475c-0.577-0.059-1.438-0.006-2.585,0.159l1.532-0.885    l-2.508-1.447l-10.778,6.223l2.707,1.563L93.1,239.626L93.1,239.626z M96.947,244.253c-0.003,1.155,0.753,2.172,2.269,3.047    c0.945,0.546,2.04,0.916,3.284,1.114s2.557,0.181,3.939-0.056c1.383-0.234,2.631-0.672,3.743-1.314    c1.491-0.861,2.325-1.883,2.503-3.068c0.177-1.186-0.555-2.252-2.195-3.197c-0.976-0.566-2.072-0.947-3.287-1.147    c-1.215-0.2-2.499-0.19-3.851,0.03c-1.352,0.222-2.556,0.638-3.614,1.248C97.881,241.981,96.95,243.095,96.947,244.253    L96.947,244.253z M105.559,241.589c1.053-0.042,1.92,0.134,2.601,0.526c0.689,0.398,0.998,0.902,0.929,1.512    c-0.07,0.61-0.641,1.225-1.713,1.845c-1.099,0.634-2.174,0.974-3.223,1.02c-1.049,0.043-1.914-0.129-2.595-0.523    c-0.697-0.402-1.012-0.908-0.946-1.516c0.067-0.608,0.646-1.229,1.739-1.857C103.437,241.968,104.506,241.632,105.559,241.589    L105.559,241.589z M122.839,252.904c1.056-0.611,1.76-1.137,2.112-1.579c0.352-0.442,0.434-0.924,0.246-1.441    c-0.188-0.52-0.675-1.006-1.465-1.461c-0.68-0.393-1.451-0.662-2.314-0.809c-0.863-0.148-1.821-0.173-2.876-0.079l1.573-0.908    l-2.508-1.447l-10.779,6.223l2.707,1.563l4.888-2.822c1.239-0.716,2.157-1.16,2.752-1.332c0.596-0.174,1.204-0.227,1.825-0.162    c0.621,0.066,1.158,0.23,1.611,0.491c0.352,0.204,0.568,0.44,0.649,0.715c0.081,0.274-0.011,0.545-0.274,0.816    c-0.265,0.27-0.949,0.722-2.053,1.36l-5.507,3.179l2.708,1.563L122.839,252.904L122.839,252.904z M132.479,253.766l3.806-2.197    l-4.371-0.603l-2.142,1.236l-1.242-0.718l-2.273,1.312l1.242,0.718l-4.705,2.716c-1.206,0.696-1.95,1.189-2.234,1.479    c-0.395,0.39-0.526,0.787-0.397,1.189c0.129,0.404,0.538,0.805,1.226,1.201c0.789,0.456,1.638,0.781,2.547,0.979l1.978-1.413    c-0.652-0.164-1.102-0.319-1.353-0.463c-0.335-0.195-0.423-0.401-0.261-0.621c0.094-0.117,0.612-0.448,1.554-0.992l4.351-2.512    l1.84,1.062l2.273-1.312L132.479,253.766L132.479,253.766z"/>
		<path fill="#707070" d="M30.329,203.689c-1.051-0.025-1.951-0.254-2.701-0.688c-1.024-0.59-1.46-1.299-1.309-2.127    c0.151-0.826,1.163-1.781,3.038-2.862c1.807-1.043,3.431-1.601,4.874-1.676c1.441-0.073,2.684,0.19,3.724,0.791    c0.728,0.421,1.145,0.91,1.252,1.468c0.106,0.557-0.153,1.121-0.778,1.689l3.523,1.214c0.954-0.958,1.383-1.847,1.288-2.667    c-0.13-1.153-0.984-2.186-2.564-3.099c-1.939-1.119-4.106-1.65-6.501-1.597c-2.756,0.066-5.402,0.831-7.939,2.296    c-2.401,1.387-3.654,2.866-3.755,4.441c-0.084,1.365,0.792,2.578,2.628,3.639c1.46,0.842,3.075,1.331,4.843,1.466    c1.768,0.134,3.699-0.156,5.793-0.868l-1.831-2.124C32.575,203.479,31.379,203.714,30.329,203.689L30.329,203.689z"/>
	</g>
</g>
</svg>